<svg xmlns="http://www.w3.org/2000/svg" viewBox="0 0 720 440" role="img" aria-labelledby="title desc">
  <title id="title">XY snapshot projection</title>
  <desc id="desc">Representative scatter plot of two interacting disk galaxies viewed in the XY plane.</desc>
  <rect width="720" height="440" fill="#f8fafc"/>
  <rect x="68" y="44" width="606" height="328" fill="#ffffff" stroke="#cbd5e1"/>
  <g stroke="#e2e8f0" stroke-width="1">
    <path d="M68 290H674M68 208H674M68 126H674"/>
    <path d="M169 44V372M270 44V372M371 44V372M472 44V372M573 44V372"/>
  </g>
  <g stroke="#334155" stroke-width="1.2">
    <path d="M68 372H674"/>
    <path d="M68 44V372"/>
  </g>
  <g fill="#475569" font-family="Arial, sans-serif" font-size="14">
    <text x="330" y="414">x</text>
    <text x="22" y="212" transform="rotate(-90 22 212)">y</text>
    <text x="68" y="28" font-size="18" font-weight="700">Snapshot 000080 - XY projection</text>
  </g>
  <g fill="none" stroke-linecap="round">
    <path d="M160 248C205 188 263 166 327 178C393 191 431 148 499 88" stroke="#2563eb" stroke-width="4" opacity="0.16"/>
    <path d="M205 276C264 235 336 230 394 260C454 291 520 276 618 218" stroke="#f59e0b" stroke-width="4" opacity="0.18"/>
    <path d="M112 190C175 214 228 211 282 183C337 154 381 142 430 151" stroke="#2563eb" stroke-width="2.5" opacity="0.16"/>
    <path d="M423 256C484 224 543 216 643 257" stroke="#f59e0b" stroke-width="2.5" opacity="0.17"/>
  </g>
  <g opacity="0.88">
    <g fill="#2563eb">
      <circle cx="242" cy="220" r="2.5"/><circle cx="250" cy="205" r="2.1"/><circle cx="262" cy="215" r="1.9"/>
      <circle cx="231" cy="205" r="2.0"/><circle cx="269" cy="229" r="1.8"/><circle cx="223" cy="229" r="1.8"/>
      <circle cx="255" cy="242" r="1.7"/><circle cx="213" cy="213" r="1.7"/><circle cx="280" cy="205" r="1.6"/>
      <circle cx="241" cy="194" r="1.8"/><circle cx="286" cy="240" r="1.5"/><circle cx="204" cy="240" r="1.5"/>
      <circle cx="225" cy="189" r="1.6"/><circle cx="301" cy="218" r="1.5"/><circle cx="193" cy="219" r="1.5"/>
      <circle cx="266" cy="184" r="1.4"/><circle cx="312" cy="236" r="1.4"/><circle cx="186" cy="248" r="1.4"/>
      <circle cx="210" cy="264" r="1.4"/><circle cx="286" cy="185" r="1.3"/><circle cx="326" cy="207" r="1.3"/>
      <circle cx="176" cy="201" r="1.3"/><circle cx="239" cy="275" r="1.3"/><circle cx="320" cy="252" r="1.2"/>
      <circle cx="171" cy="260" r="1.2"/><circle cx="296" cy="170" r="1.2"/><circle cx="343" cy="225" r="1.2"/>
      <circle cx="157" cy="226" r="1.2"/><circle cx="207" cy="176" r="1.2"/><circle cx="266" cy="284" r="1.2"/>
      <circle cx="153" cy="187" r="1.1"/><circle cx="190" cy="169" r="1.1"/><circle cx="329" cy="186" r="1.1"/>
      <circle cx="354" cy="250" r="1.1"/><circle cx="136" cy="246" r="1.1"/><circle cx="228" cy="292" r="1.1"/>
      <circle cx="357" cy="196" r="1.0"/><circle cx="142" cy="274" r="1.0"/><circle cx="111" cy="211" r="1.0"/>
      <circle cx="384" cy="214" r="1.0"/><circle cx="128" cy="171" r="1.0"/><circle cx="302" cy="289" r="1.0"/>
      <circle cx="406" cy="184" r="0.95"/><circle cx="418" cy="164" r="0.9"/><circle cx="442" cy="150" r="0.9"/>
      <circle cx="468" cy="129" r="0.85"/><circle cx="501" cy="99" r="0.85"/><circle cx="532" cy="79" r="0.8"/>
      <circle cx="153" cy="279" r="0.9"/><circle cx="132" cy="272" r="0.9"/><circle cx="113" cy="264" r="0.85"/>
    </g>
    <g fill="#f59e0b">
      <circle cx="444" cy="236" r="2.6"/><circle cx="457" cy="224" r="2.1"/><circle cx="461" cy="245" r="1.9"/>
      <circle cx="430" cy="222" r="1.9"/><circle cx="473" cy="234" r="1.8"/><circle cx="438" cy="256" r="1.8"/>
      <circle cx="419" cy="242" r="1.7"/><circle cx="454" cy="208" r="1.6"/><circle cx="488" cy="248" r="1.6"/>
      <circle cx="420" cy="207" r="1.6"/><circle cx="406" cy="229" r="1.5"/><circle cx="476" cy="211" r="1.5"/>
      <circle cx="502" cy="229" r="1.5"/><circle cx="447" cy="273" r="1.5"/><circle cx="395" cy="252" r="1.4"/>
      <circle cx="492" cy="270" r="1.4"/><circle cx="512" cy="207" r="1.4"/><circle cx="384" cy="215" r="1.3"/>
      <circle cx="430" cy="286" r="1.3"/><circle cx="527" cy="250" r="1.3"/><circle cx="371" cy="242" r="1.2"/>
      <circle cx="514" cy="283" r="1.2"/><circle cx="536" cy="224" r="1.2"/><circle cx="398" cy="193" r="1.2"/>
      <circle cx="553" cy="247" r="1.2"/><circle cx="412" cy="298" r="1.1"/><circle cx="352" cy="263" r="1.1"/>
      <circle cx="570" cy="269" r="1.1"/><circle cx="550" cy="206" r="1.1"/><circle cx="382" cy="181" r="1.0"/>
      <circle cx="597" cy="253" r="1.0"/><circle cx="620" cy="231" r="0.95"/><circle cx="637" cy="216" r="0.9"/>
      <circle cx="333" cy="258" r="0.95"/><circle cx="304" cy="248" r="0.9"/><circle cx="278" cy="238" r="0.9"/>
      <circle cx="242" cy="231" r="0.85"/><circle cx="214" cy="223" r="0.85"/><circle cx="188" cy="215" r="0.8"/>
    </g>
  </g>
  <g font-family="Arial, sans-serif" font-size="12" fill="#64748b">
    <text x="70" y="394">Particles are colored by source galaxy; tidal tails form as the disks interpenetrate.</text>
  </g>
</svg>
