<svg xmlns="http://www.w3.org/2000/svg" viewBox="0 0 720 440" role="img" aria-labelledby="title desc">
  <title id="title">XZ snapshot projection</title>
  <desc id="desc">Representative side projection showing disk thickness and inclined tidal structure.</desc>
  <rect width="720" height="440" fill="#f8fafc"/>
  <rect x="68" y="44" width="606" height="328" fill="#ffffff" stroke="#cbd5e1"/>
  <g stroke="#e2e8f0" stroke-width="1">
    <path d="M68 290H674M68 208H674M68 126H674"/>
    <path d="M169 44V372M270 44V372M371 44V372M472 44V372M573 44V372"/>
  </g>
  <g stroke="#334155" stroke-width="1.2">
    <path d="M68 372H674"/>
    <path d="M68 44V372"/>
  </g>
  <g fill="#475569" font-family="Arial, sans-serif" font-size="14">
    <text x="330" y="414">x</text>
    <text x="22" y="212" transform="rotate(-90 22 212)">z</text>
    <text x="68" y="28" font-size="18" font-weight="700">Snapshot 000080 - XZ projection</text>
  </g>
  <g fill="none" stroke-linecap="round">
    <path d="M128 231C211 204 269 194 332 203C395 213 469 185 592 141" stroke="#2563eb" stroke-width="4" opacity="0.15"/>
    <path d="M197 222C280 237 361 248 439 232C514 216 569 226 650 259" stroke="#f59e0b" stroke-width="4" opacity="0.16"/>
    <path d="M153 259C227 247 297 244 374 258C442 271 518 283 626 306" stroke="#2563eb" stroke-width="2.5" opacity="0.13"/>
  </g>
  <g opacity="0.9">
    <g fill="#2563eb">
      <circle cx="240" cy="218" r="2.4"/><circle cx="253" cy="211" r="2.0"/><circle cx="231" cy="226" r="1.9"/>
      <circle cx="270" cy="219" r="1.8"/><circle cx="218" cy="215" r="1.8"/><circle cx="259" cy="231" r="1.7"/>
      <circle cx="205" cy="228" r="1.6"/><circle cx="284" cy="207" r="1.6"/><circle cx="226" cy="204" r="1.5"/>
      <circle cx="298" cy="224" r="1.5"/><circle cx="193" cy="215" r="1.5"/><circle cx="244" cy="239" r="1.5"/>
      <circle cx="309" cy="209" r="1.4"/><circle cx="178" cy="231" r="1.4"/><circle cx="268" cy="198" r="1.4"/>
      <circle cx="326" cy="226" r="1.3"/><circle cx="164" cy="219" r="1.3"/><circle cx="210" cy="241" r="1.3"/>
      <circle cx="343" cy="213" r="1.2"/><circle cx="149" cy="232" r="1.2"/><circle cx="285" cy="191" r="1.2"/>
      <circle cx="363" cy="218" r="1.1"/><circle cx="132" cy="239" r="1.1"/><circle cx="187" cy="246" r="1.1"/>
      <circle cx="386" cy="204" r="1.1"/><circle cx="411" cy="195" r="1.0"/><circle cx="438" cy="184" r="1.0"/>
      <circle cx="466" cy="174" r="0.95"/><circle cx="494" cy="162" r="0.95"/><circle cx="525" cy="151" r="0.9"/>
      <circle cx="558" cy="141" r="0.85"/><circle cx="592" cy="132" r="0.8"/><circle cx="627" cy="124" r="0.8"/>
      <circle cx="166" cy="255" r="0.95"/><circle cx="206" cy="252" r="0.9"/><circle cx="252" cy="253" r="0.9"/>
      <circle cx="301" cy="259" r="0.85"/><circle cx="350" cy="268" r="0.85"/><circle cx="404" cy="276" r="0.8"/>
    </g>
    <g fill="#f59e0b">
      <circle cx="448" cy="232" r="2.5"/><circle cx="461" cy="226" r="2.1"/><circle cx="434" cy="238" r="1.9"/>
      <circle cx="475" cy="238" r="1.8"/><circle cx="423" cy="224" r="1.8"/><circle cx="453" cy="246" r="1.7"/>
      <circle cx="493" cy="228" r="1.6"/><circle cx="410" cy="238" r="1.6"/><circle cx="466" cy="215" r="1.5"/>
      <circle cx="510" cy="241" r="1.5"/><circle cx="397" cy="226" r="1.5"/><circle cx="433" cy="252" r="1.4"/>
      <circle cx="529" cy="232" r="1.4"/><circle cx="381" cy="240" r="1.4"/><circle cx="485" cy="213" r="1.3"/>
      <circle cx="548" cy="244" r="1.3"/><circle cx="365" cy="231" r="1.3"/><circle cx="413" cy="257" r="1.2"/>
      <circle cx="571" cy="250" r="1.2"/><circle cx="345" cy="241" r="1.2"/><circle cx="503" cy="213" r="1.1"/>
      <circle cx="596" cy="257" r="1.1"/><circle cx="324" cy="235" r="1.1"/><circle cx="389" cy="260" r="1.0"/>
      <circle cx="623" cy="262" r="1.0"/><circle cx="298" cy="233" r="0.95"/><circle cx="270" cy="228" r="0.9"/>
      <circle cx="236" cy="224" r="0.9"/><circle cx="201" cy="219" r="0.85"/><circle cx="650" cy="267" r="0.85"/>
    </g>
  </g>
  <g font-family="Arial, sans-serif" font-size="12" fill="#64748b">
    <text x="70" y="394">The side view makes the third dimension visible: inclination, thickness, and vertical tidal spread.</text>
  </g>
</svg>
